<svg width="22" height="20" viewBox="0 0 22 20" fill="none" xmlns="http://www.w3.org/2000/svg">
<path d="M3 18V10.625L2 11.4C1.76666 11.5667 1.51666 11.6333 1.25 11.6C0.983329 11.5667 0.766663 11.4333 0.599996 11.2C0.433329 10.9667 0.366663 10.7167 0.399996 10.45C0.433329 10.1833 0.558329 9.96667 0.774996 9.8L3 8.1V6C3 5.71667 3.09583 5.47917 3.2875 5.2875C3.47916 5.09583 3.71666 5 4 5C4.28333 5 4.52083 5.09583 4.7125 5.2875C4.90416 5.47917 5 5.71667 5 6V6.575L9.775 2.925C9.95833 2.79167 10.1542 2.69167 10.3625 2.625C10.5708 2.55833 10.7833 2.525 11 2.525C11.2167 2.525 11.4292 2.55833 11.6375 2.625C11.8458 2.69167 12.0417 2.79167 12.225 2.925L21.225 9.8C21.4417 9.96667 21.5667 10.1833 21.6 10.45C21.6333 10.7167 21.5667 10.9667 21.4 11.2C21.2333 11.4167 21.0167 11.5417 20.75 11.575C20.4833 11.6083 20.2417 11.5417 20.025 11.375L19 10.625V18C19 18.55 18.8042 19.0208 18.4125 19.4125C18.0208 19.8042 17.55 20 17 20H12.5C12.3667 20 12.25 19.95 12.15 19.85C12.05 19.75 12 19.6333 12 19.5V15C12 14.7167 11.9042 14.4792 11.7125 14.2875C11.5208 14.0958 11.2833 14 11 14C10.7167 14 10.4792 14.0958 10.2875 14.2875C10.0958 14.4792 10 14.7167 10 15V19.5C10 19.6333 9.95 19.75 9.85 19.85C9.75 19.95 9.63333 20 9.5 20H5C4.45 20 3.97916 19.8042 3.5875 19.4125C3.19583 19.0208 3 18.55 3 18ZM4.3 4C3.91666 4 3.62083 3.84167 3.4125 3.525C3.20416 3.20833 3.19166 2.88333 3.375 2.55C3.65833 2.06667 4.02916 1.6875 4.4875 1.4125C4.94583 1.1375 5.45 1 6 1C6.18333 1 6.35833 0.954167 6.525 0.8625C6.69166 0.770833 6.81666 0.641667 6.9 0.475C6.98333 0.325 7.09583 0.208333 7.2375 0.125C7.37916 0.0416667 7.54166 0 7.725 0C8.10833 0 8.4 0.158333 8.6 0.475C8.8 0.791667 8.80833 1.11667 8.625 1.45C8.34166 1.93333 7.97083 2.3125 7.5125 2.5875C7.05416 2.8625 6.55 3 6 3C5.81666 3 5.64166 3.04167 5.475 3.125C5.30833 3.20833 5.18333 3.34167 5.1 3.525C5.01666 3.675 4.90833 3.79167 4.775 3.875C4.64166 3.95833 4.48333 4 4.3 4Z" fill="#8A8A8A"/>
</svg>
