<svg width="18" height="19" viewBox="0 0 18 19" fill="none" xmlns="http://www.w3.org/2000/svg">
<path d="M9 4.62499L8.595 5.01499C8.64747 5.06943 8.71038 5.11273 8.77997 5.14231C8.84955 5.17189 8.92439 5.18713 9 5.18713C9.07561 5.18713 9.15045 5.17189 9.22003 5.14231C9.28962 5.11273 9.35253 5.06943 9.405 5.01499L9 4.62499ZM7.0695 14.2415C5.9325 13.3452 4.68975 12.47 3.7035 11.36C2.7375 10.271 2.0625 9.00124 2.0625 7.35274H0.9375C0.9375 9.35224 1.77 10.8777 2.86275 12.107C3.93525 13.3145 5.30325 14.282 6.37275 15.125L7.0695 14.2415ZM2.0625 7.35274C2.0625 5.74024 2.97375 4.38724 4.218 3.81799C5.427 3.26524 7.0515 3.41149 8.595 5.01499L9.405 4.23574C7.575 2.33299 5.448 2.01874 3.75 2.79499C2.0895 3.55474 0.9375 5.31874 0.9375 7.35274H2.0625ZM6.37275 15.125C6.7575 15.428 7.17 15.7505 7.58775 15.995C8.0055 16.2387 8.4825 16.4375 9 16.4375V15.3125C8.7675 15.3125 8.4945 15.2225 8.1555 15.0237C7.81575 14.8257 7.464 14.5527 7.0695 14.2415L6.37275 15.125ZM11.6273 15.125C12.6968 14.2812 14.0648 13.3152 15.1373 12.107C16.23 10.877 17.0625 9.35224 17.0625 7.35274H15.9375C15.9375 9.00124 15.2625 10.271 14.2965 11.36C13.3103 12.47 12.0675 13.3452 10.9305 14.2415L11.6273 15.125ZM17.0625 7.35274C17.0625 5.31874 15.9113 3.55474 14.25 2.79499C12.552 2.01874 10.4265 2.33299 8.595 4.23499L9.405 5.01499C10.9485 3.41224 12.573 3.26524 13.782 3.81799C15.0262 4.38724 15.9375 5.73949 15.9375 7.35274H17.0625ZM10.9305 14.2415C10.536 14.5527 10.1842 14.8257 9.8445 15.0237C9.5055 15.2217 9.2325 15.3125 9 15.3125V16.4375C9.5175 16.4375 9.9945 16.2387 10.4123 15.995C10.8308 15.7505 11.2425 15.428 11.6273 15.125L10.9305 14.2415Z" fill="#FAFAFA"/>
</svg>
