<svg width="18" height="18" viewBox="0 0 18 18" fill="none" xmlns="http://www.w3.org/2000/svg">
<mask id="mask0_9_419" style="mask-type:alpha" maskUnits="userSpaceOnUse" x="0" y="0" width="18" height="18">
<rect width="18" height="18" fill="#D9D9D9"/>
</mask>
<g mask="url(#mask0_9_419)">
<path d="M12.075 9.97501L10.9875 8.88751C11.125 8.22501 10.9531 7.65939 10.4719 7.19064C9.99063 6.72189 9.4125 6.53751 8.7375 6.63751L7.65 5.55001C7.8625 5.45001 8.08125 5.37501 8.30625 5.32501C8.53125 5.27501 8.7625 5.25001 9 5.25001C9.9375 5.25001 10.7344 5.57814 11.3906 6.23439C12.0469 6.89064 12.375 7.68751 12.375 8.62501C12.375 8.86251 12.35 9.09376 12.3 9.31876C12.25 9.54376 12.175 9.76251 12.075 9.97501ZM14.475 12.3375L13.3875 11.2875C13.8625 10.925 14.2875 10.5219 14.6625 10.0781C15.0375 9.63439 15.35 9.15001 15.6 8.62501C14.975 7.36251 14.0719 6.35939 12.8906 5.61564C11.7094 4.87189 10.4125 4.50001 9 4.50001C8.6375 4.50001 8.28438 4.52501 7.94063 4.57501C7.59688 4.62501 7.25 4.70001 6.9 4.80001L5.7375 3.63751C6.2625 3.42501 6.79688 3.26564 7.34063 3.15939C7.88438 3.05314 8.4375 3.00001 9 3.00001C10.7125 3.00001 12.2781 3.45001 13.6969 4.35001C15.1156 5.25001 16.2 6.46251 16.95 7.98751C17 8.08751 17.0375 8.19064 17.0625 8.29689C17.0875 8.40314 17.1 8.51251 17.1 8.62501C17.1 8.73751 17.0906 8.84689 17.0719 8.95314C17.0531 9.05939 17.0188 9.16251 16.9688 9.26251C16.6938 9.87501 16.3438 10.4406 15.9188 10.9594C15.4938 11.4781 15.0125 11.9375 14.475 12.3375ZM9 14.25C7.325 14.25 5.79375 13.7969 4.40625 12.8906C3.01875 11.9844 1.925 10.7938 1.125 9.31876C1.0625 9.21876 1.01563 9.10939 0.984375 8.99064C0.953125 8.87189 0.9375 8.75001 0.9375 8.62501C0.9375 8.50001 0.95 8.38126 0.975 8.26876C1 8.15626 1.04375 8.04376 1.10625 7.93126C1.35625 7.43126 1.64688 6.95314 1.97813 6.49689C2.30938 6.04064 2.6875 5.62501 3.1125 5.25001L1.55625 3.67501C1.41875 3.52501 1.35313 3.34689 1.35938 3.14064C1.36563 2.93439 1.4375 2.76251 1.575 2.62501C1.7125 2.48751 1.8875 2.41876 2.1 2.41876C2.3125 2.41876 2.4875 2.48751 2.625 2.62501L15.375 15.375C15.5125 15.5125 15.5844 15.6844 15.5906 15.8906C15.5969 16.0969 15.525 16.275 15.375 16.425C15.2375 16.5625 15.0625 16.6313 14.85 16.6313C14.6375 16.6313 14.4625 16.5625 14.325 16.425L11.7 13.8375C11.2625 13.975 10.8188 14.0781 10.3688 14.1469C9.91875 14.2156 9.4625 14.25 9 14.25ZM4.1625 6.30001C3.8 6.62501 3.46875 6.98126 3.16875 7.36876C2.86875 7.75626 2.6125 8.17501 2.4 8.62501C3.025 9.88751 3.92813 10.8906 5.10938 11.6344C6.29063 12.3781 7.5875 12.75 9 12.75C9.25 12.75 9.49375 12.7344 9.73125 12.7031C9.96875 12.6719 10.2125 12.6375 10.4625 12.6L9.7875 11.8875C9.65 11.925 9.51875 11.9531 9.39375 11.9719C9.26875 11.9906 9.1375 12 9 12C8.0625 12 7.26563 11.6719 6.60938 11.0156C5.95313 10.3594 5.625 9.56251 5.625 8.62501C5.625 8.48751 5.63438 8.35626 5.65313 8.23126C5.67188 8.10626 5.7 7.97501 5.7375 7.83751L4.1625 6.30001Z" fill="#8A8A8A"/>
</g>
</svg>
