<svg width="18" height="19" viewBox="0 0 18 19" fill="none" xmlns="http://www.w3.org/2000/svg">
<path d="M15.75 12.5675V8.8235C15.75 5.606 15.75 3.99875 14.7615 2.999C13.773 2 12.1815 2 9 2C5.81775 2 4.227 2 3.2385 2.999C2.25 3.99875 2.25 5.6075 2.25 8.8235V12.5682C2.25 14.8902 2.25 16.052 2.8005 16.559C3.063 16.8013 3.3945 16.9535 3.74775 16.994C4.488 17.0788 5.35275 16.3137 7.0815 14.7845C7.8465 14.1087 8.22825 13.7705 8.67 13.682C8.8875 13.637 9.1125 13.637 9.33 13.682C9.7725 13.7705 10.1542 14.1087 10.9185 14.7845C12.6472 16.3137 13.512 17.0787 14.2523 16.9932C14.6048 16.9535 14.937 16.8013 15.1995 16.559C15.75 16.052 15.75 14.8903 15.75 12.5675Z" stroke="#FAFAFA" stroke-width="1.5"/>
<path opacity="0.5" d="M11.25 5H6.75" stroke="#FAFAFA" stroke-width="1.5" stroke-linecap="round"/>
</svg>
