<svg width="18" height="18" viewBox="0 0 18 18" fill="none" xmlns="http://www.w3.org/2000/svg">
<mask id="mask0_9_418" style="mask-type:alpha" maskUnits="userSpaceOnUse" x="0" y="0" width="18" height="18">
<rect width="18" height="18" fill="#D9D9D9"/>
</mask>
<g mask="url(#mask0_9_418)">
<path d="M8.99999 12C9.93749 12 10.7344 11.6719 11.3906 11.0156C12.0469 10.3594 12.375 9.5625 12.375 8.625C12.375 7.6875 12.0469 6.89062 11.3906 6.23438C10.7344 5.57812 9.93749 5.25 8.99999 5.25C8.06249 5.25 7.26561 5.57812 6.60936 6.23438C5.95311 6.89062 5.62499 7.6875 5.62499 8.625C5.62499 9.5625 5.95311 10.3594 6.60936 11.0156C7.26561 11.6719 8.06249 12 8.99999 12ZM8.99999 10.65C8.43749 10.65 7.95936 10.4531 7.56561 10.0594C7.17186 9.66563 6.97499 9.1875 6.97499 8.625C6.97499 8.0625 7.17186 7.58437 7.56561 7.19063C7.95936 6.79688 8.43749 6.6 8.99999 6.6C9.56249 6.6 10.0406 6.79688 10.4344 7.19063C10.8281 7.58437 11.025 8.0625 11.025 8.625C11.025 9.1875 10.8281 9.66563 10.4344 10.0594C10.0406 10.4531 9.56249 10.65 8.99999 10.65ZM8.99999 14.25C7.32499 14.25 5.79686 13.8 4.41561 12.9C3.03436 12 1.94374 10.8125 1.14374 9.3375C1.08124 9.225 1.03436 9.10938 1.00311 8.99063C0.971863 8.87188 0.956238 8.75 0.956238 8.625C0.956238 8.5 0.971863 8.37813 1.00311 8.25938C1.03436 8.14062 1.08124 8.025 1.14374 7.9125C1.94374 6.4375 3.03436 5.25 4.41561 4.35C5.79686 3.45 7.32499 3 8.99999 3C10.675 3 12.2031 3.45 13.5844 4.35C14.9656 5.25 16.0562 6.4375 16.8562 7.9125C16.9187 8.025 16.9656 8.14062 16.9969 8.25938C17.0281 8.37813 17.0437 8.5 17.0437 8.625C17.0437 8.75 17.0281 8.87188 16.9969 8.99063C16.9656 9.10938 16.9187 9.225 16.8562 9.3375C16.0562 10.8125 14.9656 12 13.5844 12.9C12.2031 13.8 10.675 14.25 8.99999 14.25ZM8.99999 12.75C10.4125 12.75 11.7094 12.3781 12.8906 11.6344C14.0719 10.8906 14.975 9.8875 15.6 8.625C14.975 7.3625 14.0719 6.35938 12.8906 5.61562C11.7094 4.87187 10.4125 4.5 8.99999 4.5C7.58749 4.5 6.29061 4.87187 5.10936 5.61562C3.92811 6.35938 3.02499 7.3625 2.39999 8.625C3.02499 9.8875 3.92811 10.8906 5.10936 11.6344C6.29061 12.3781 7.58749 12.75 8.99999 12.75Z" fill="#8A8A8A"/>
</g>
</svg>
